{"glyphs":{":":{"x_min":0,"x_max":197,"ha":197,"o":"m 60 415 l 60 529 l 168 529 l 168 415 z m 60 96 l 60 210 l 168 210 l 168 96 z"},"$":{"x_min":0,"x_max":491,"ha":491,"o":"m 247 -77 l 247 -8 q 148 -6 96 56 q 45 119 39 227 l 139 254 q 150 80 254 80 q 297 80 320 104 q 343 128 343 175 q 343 201 337 223 q 331 244 317 264 q 303 283 290 296 q 278 309 255 331 l 119 451 q 78 488 59 530 q 41 571 41 630 q 41 716 89 765 q 138 814 223 817 l 223 884 l 258 884 l 258 817 q 341 811 384 760 q 426 708 435 608 l 339 582 q 337 608 334 628 q 331 649 323 670 q 315 690 304 703 q 292 716 274 724 q 255 731 231 730 q 142 724 142 641 q 142 605 154 582 q 166 558 195 531 l 332 411 q 385 363 416 308 q 448 253 448 184 q 448 103 402 52 q 356 1 281 -7 l 281 -77 z"},"?":{"x_min":0,"x_max":487,"ha":487,"o":"m 157 0 l 157 110 l 264 110 l 264 0 z m 162 203 l 162 327 q 203 363 230 392 q 258 420 286 457 q 313 494 327 533 q 341 573 341 615 q 341 664 314 695 q 287 727 242 727 q 196 727 174 699 q 152 672 160 627 l 165 592 l 65 573 l 59 607 q 40 704 93 762 q 145 820 243 820 q 339 820 393 766 q 446 711 446 612 q 446 566 434 528 q 423 490 394 450 q 364 410 344 388 q 324 366 278 320 q 264 307 257 300 l 257 203 z"},"<":{"x_min":0,"x_max":373,"ha":373,"o":"m 315 36 l 29 238 l 29 345 l 315 549 l 315 441 l 110 292 l 315 143 z"},"'":{"x_min":0,"x_max":366,"ha":366,"o":"m 85 562 l 85 810 l 182 810 l 143 562 z"},"=":{"x_min":0,"x_max":415,"ha":415,"o":"m 54 456 l 54 538 l 361 538 l 361 456 z m 54 279 l 54 360 l 361 360 l 361 279 z"},"a":{"x_min":0,"x_max":426,"ha":426,"o":"m 200 84 q 221 84 240 101 q 260 117 270 132 l 270 296 q 214 264 196 249 q 149 211 149 159 q 149 124 162 104 q 175 84 200 84 z m 158 -8 q 108 -8 75 32 q 42 73 42 126 q 42 167 55 200 q 68 234 83 254 q 99 275 136 297 q 173 319 194 329 q 214 338 266 359 q 269 360 270 361 l 270 402 q 270 458 259 482 q 247 506 212 506 q 151 506 151 424 l 151 395 l 45 399 q 45 408 46 420 q 51 507 95 546 q 138 586 219 586 q 303 586 340 540 q 377 495 377 403 l 377 139 q 377 73 387 0 l 289 0 q 279 48 275 85 q 263 46 233 19 q 204 -8 158 -8 z"},"L":{"x_min":0,"x_max":397,"ha":397,"o":"m 63 0 l 63 810 l 176 810 l 176 81 l 383 81 l 383 0 z"},"3":{"x_min":0,"x_max":467,"ha":467,"o":"m 238 -9 q 141 -9 90 46 q 40 101 40 199 l 40 226 l 146 226 l 146 208 q 147 178 151 157 q 155 135 165 117 q 174 98 193 89 q 211 80 238 80 q 261 80 277 87 q 294 94 304 106 q 314 119 320 138 q 326 158 328 179 q 331 200 331 229 q 331 297 306 336 q 281 375 225 378 q 221 379 210 379 l 210 486 l 224 486 q 281 488 306 516 q 331 544 331 609 q 331 668 311 699 q 291 730 239 730 q 212 730 194 721 q 175 711 165 693 q 155 674 151 652 q 147 630 146 600 l 146 583 l 40 583 l 40 610 q 40 708 90 763 q 141 817 239 817 q 337 817 387 762 q 438 708 438 609 q 438 538 407 493 q 376 448 322 432 q 377 415 408 363 q 438 311 438 229 q 438 116 390 54 q 341 -9 238 -9 z"},";":{"x_min":0,"x_max":215,"ha":215,"o":"m 59 446 l 59 565 l 167 565 l 167 446 z m 76 -46 l 58 1 q 116 5 116 68 l 59 68 l 59 182 l 170 182 l 170 70 q 170 15 148 -15 q 125 -44 76 -46 z"},"J":{"x_min":0,"x_max":301,"ha":301,"o":"m 7 -19 l 7 62 q 45 62 67 67 q 88 71 102 85 q 116 100 120 122 q 125 145 125 185 l 125 810 l 237 810 l 237 183 q 237 128 229 92 q 221 56 201 30 q 182 4 147 -7 q 113 -19 61 -19 z"},"V":{"x_min":0,"x_max":505,"ha":505,"o":"m 204 0 l 23 810 l 129 810 l 257 213 l 379 810 l 482 810 l 303 0 z"},"\"":{"x_min":0,"x_max":380,"ha":380,"o":"m 234 562 l 234 810 l 331 810 l 292 562 z m 85 562 l 85 810 l 182 810 l 143 562 z"},"7":{"x_min":0,"x_max":385,"ha":385,"o":"m 98 0 l 244 726 l 27 726 l 27 810 l 351 810 l 351 758 l 201 0 z"},"S":{"x_min":0,"x_max":473,"ha":473,"o":"m 254 -9 q 152 -9 98 54 q 45 117 39 227 l 139 254 q 150 80 254 80 q 297 80 320 104 q 343 128 343 175 q 343 201 337 223 q 331 244 317 264 q 303 283 290 296 q 278 309 255 331 l 119 451 q 78 488 59 530 q 41 571 41 630 q 41 718 92 767 q 143 816 231 817 q 328 819 376 767 q 425 716 435 608 l 339 582 q 337 608 334 628 q 331 649 323 670 q 315 690 304 703 q 292 716 274 724 q 255 731 231 730 q 142 724 142 641 q 142 605 154 582 q 166 558 195 531 l 332 411 q 385 363 416 308 q 448 253 448 184 q 448 95 394 43 q 340 -9 254 -9 z"},"}":{"x_min":0,"x_max":321,"ha":321,"o":"m 44 -191 l 44 -112 q 55 -112 62 -112 q 69 -112 76 -110 q 83 -108 88 -107 q 92 -106 96 -101 q 101 -96 103 -93 q 104 -90 106 -81 q 108 -71 109 -65 q 110 -60 110 -45 q 111 -30 111 -20 q 111 -11 111 10 l 111 167 q 111 238 128 272 q 145 306 178 313 q 145 321 128 355 q 111 389 111 460 l 111 616 q 111 637 111 646 q 111 656 110 671 q 110 686 109 691 q 108 697 106 706 q 104 716 103 719 q 101 721 96 727 q 92 732 88 733 q 83 734 76 736 q 69 738 62 738 q 55 738 44 738 l 44 817 q 78 817 100 816 q 123 815 143 811 q 163 806 175 801 q 187 795 197 783 q 207 771 211 758 q 215 746 219 722 q 222 699 222 676 q 223 653 223 616 l 223 476 q 223 419 228 394 q 232 369 244 359 q 255 350 281 350 l 281 276 q 255 276 244 267 q 232 258 228 233 q 223 208 223 151 l 223 10 q 223 -27 222 -50 q 222 -73 219 -96 q 215 -120 211 -132 q 207 -145 197 -157 q 187 -169 175 -175 q 163 -180 143 -185 q 123 -189 100 -190 q 78 -191 44 -191 z"},"Z":{"x_min":0,"x_max":417,"ha":417,"o":"m 38 0 l 38 81 l 276 729 l 53 729 l 53 810 l 396 810 l 396 761 l 145 81 l 396 81 l 396 0 z"},"x":{"x_min":0,"x_max":389,"ha":389,"o":"m 9 0 l 139 304 l 12 578 l 114 578 l 199 395 l 274 578 l 379 578 l 247 291 l 381 0 l 279 0 l 188 196 l 110 0 z"},")":{"x_min":0,"x_max":260,"ha":260,"o":"m 29 -194 l 29 -122 q 52 -122 68 -106 q 85 -90 95 -54 q 104 -19 110 13 q 116 45 119 105 q 121 164 122 199 q 122 235 122 303 q 122 310 122 312 q 122 316 122 325 q 122 393 122 428 q 121 464 119 522 q 116 581 110 613 q 104 645 95 679 q 85 714 68 730 q 52 745 29 746 l 29 817 q 69 817 101 801 q 132 784 152 760 q 172 737 187 694 q 201 651 208 615 q 215 579 219 518 q 223 458 224 419 q 225 379 225 312 q 225 261 224 230 q 224 199 222 151 q 220 103 217 72 q 213 42 206 2 q 200 -38 190 -63 q 180 -88 165 -115 q 150 -143 131 -158 q 112 -173 86 -183 q 61 -193 29 -194 z"},"&":{"x_min":0,"x_max":606,"ha":606,"o":"m 244 460 q 277 500 302 557 q 326 614 326 667 q 326 696 308 713 q 291 729 261 729 q 228 729 211 703 q 195 676 195 638 q 195 570 244 460 z m 233 80 q 292 80 342 140 l 218 331 q 194 300 179 258 q 165 216 165 173 q 165 133 181 106 q 197 80 233 80 z m 233 -9 q 151 -9 104 42 q 58 92 58 173 q 58 244 89 300 q 121 357 176 407 q 168 421 153 449 q 138 477 129 495 q 120 513 109 539 q 98 564 93 589 q 88 613 88 638 q 88 719 135 768 q 182 817 261 817 q 335 817 384 777 q 433 736 433 667 q 433 629 419 591 q 405 552 380 517 q 355 482 333 456 q 311 431 281 402 l 403 210 q 431 265 443 372 l 549 372 q 549 316 526 252 q 502 187 471 143 q 485 125 506 114 q 527 102 550 102 l 550 -8 q 545 -8 536 -8 q 525 -8 514 -6 q 504 -3 496 -1 q 488 2 478 9 q 467 15 462 18 q 458 21 447 31 q 436 41 433 44 q 431 46 419 58 q 408 69 407 70 q 378 34 334 13 q 290 -9 233 -9 z"},"_":{"x_min":0,"x_max":344,"ha":344,"o":"m 0 -134 l 0 -53 l 344 -53 l 344 -134 z"},"v":{"x_min":0,"x_max":385,"ha":385,"o":"m 129 0 l 15 578 l 123 578 l 194 113 l 266 578 l 370 578 l 260 0 z"},"O":{"x_min":0,"x_max":539,"ha":539,"o":"m 270 -9 q 209 -9 166 9 q 123 27 97 62 q 72 98 60 145 q 48 191 48 254 l 48 561 q 48 687 100 752 q 151 817 270 817 q 387 817 439 752 q 491 686 491 561 l 491 253 q 491 127 439 59 q 387 -9 270 -9 z m 377 229 l 377 584 q 377 621 373 645 q 369 669 357 690 q 346 710 324 720 q 303 729 270 729 q 236 729 215 720 q 193 710 182 690 q 170 669 166 645 q 162 621 162 584 l 162 229 q 162 192 166 167 q 170 142 182 121 q 193 100 215 90 q 236 80 270 80 q 303 80 324 90 q 346 100 357 121 q 369 142 373 167 q 377 192 377 229 z"},"(":{"x_min":0,"x_max":298,"ha":298,"o":"m 268 -194 q 228 -193 197 -177 q 166 -161 146 -137 q 125 -113 111 -70 q 97 -27 90 9 q 83 45 79 105 q 75 165 74 205 q 73 244 73 311 q 73 377 74 417 q 75 457 79 517 q 83 577 90 614 q 97 650 111 693 q 125 736 146 760 q 166 784 197 800 q 228 817 268 817 l 268 745 q 246 745 229 729 q 213 713 203 677 q 193 642 188 610 q 182 578 179 518 q 177 459 176 424 q 176 388 176 320 q 176 318 176 317 q 176 315 176 314 q 176 312 176 311 q 176 307 176 298 q 176 230 176 195 q 177 159 179 101 q 182 42 188 10 q 193 -21 203 -56 q 213 -91 229 -107 q 246 -122 268 -123 z"},"C":{"x_min":0,"x_max":515,"ha":515,"o":"m 266 -9 q 215 -9 177 5 q 139 19 115 42 q 91 65 75 100 q 60 135 54 174 q 48 212 48 260 l 48 546 q 48 598 54 638 q 61 678 76 712 q 91 747 115 770 q 140 792 177 805 q 215 817 266 817 q 375 817 422 758 q 470 699 470 584 l 470 520 l 363 520 l 363 577 q 363 596 363 606 q 362 617 362 632 q 361 648 359 657 q 357 666 354 677 q 351 689 346 696 q 341 702 333 710 q 326 717 317 721 q 308 725 295 727 q 282 729 267 729 q 243 729 226 724 q 208 719 197 708 q 186 697 178 684 q 171 671 168 650 q 165 629 163 610 q 162 591 162 562 l 162 242 q 162 151 185 115 q 208 80 267 80 q 289 80 305 84 q 322 89 332 101 q 343 112 349 124 q 355 136 358 157 q 361 178 362 195 q 363 213 363 241 l 363 301 l 470 301 l 470 241 q 470 194 464 158 q 458 121 444 89 q 430 57 407 36 q 384 15 348 3 q 312 -9 266 -9 z"},"W":{"x_min":0,"x_max":729,"ha":729,"o":"m 168 0 l 36 810 l 130 810 l 217 228 l 326 807 l 406 807 l 516 225 l 601 810 l 693 810 l 563 0 l 481 0 l 368 600 l 254 0 z"},"A":{"x_min":0,"x_max":492,"ha":492,"o":"m 179 285 l 314 285 l 246 650 z m 19 0 l 191 810 l 300 810 l 473 0 l 366 0 l 329 204 l 164 204 l 125 0 z"},"f":{"x_min":0,"x_max":287,"ha":287,"o":"m 88 0 l 88 499 l 19 499 l 19 578 l 88 578 l 88 608 q 88 643 91 667 q 93 692 101 715 q 109 738 122 751 q 136 765 158 773 q 181 781 213 781 q 240 781 283 776 l 283 696 q 244 701 243 701 q 214 701 204 682 q 195 664 195 626 l 195 578 l 283 578 l 283 499 l 195 499 l 195 0 z"},"Q":{"x_min":0,"x_max":541,"ha":541,"o":"m 378 229 l 378 584 q 378 621 374 645 q 370 670 358 690 q 347 710 325 720 q 303 729 270 729 q 237 729 215 720 q 193 710 182 690 q 170 670 166 645 q 162 621 162 584 l 162 229 q 162 193 166 167 q 170 142 182 121 q 193 100 215 90 q 237 80 270 80 q 303 80 325 90 q 347 100 358 121 q 370 142 374 167 q 378 193 378 229 z m 435 -164 q 372 -132 289 -8 q 286 -8 280 -9 q 273 -9 270 -9 q 152 -9 100 59 q 48 126 48 254 l 48 561 q 48 687 100 752 q 152 817 270 817 q 388 817 440 752 q 492 686 492 561 l 492 253 q 492 60 373 10 q 423 -55 453 -75 z"},"w":{"x_min":0,"x_max":588,"ha":588,"o":"m 121 0 l 28 578 l 116 578 l 176 152 l 253 578 l 335 578 l 412 154 l 472 578 l 560 578 l 464 0 l 374 0 l 295 408 l 217 0 z"},"-":{"x_min":0,"x_max":321,"ha":321,"o":"m 49 261 l 49 342 l 272 342 l 272 261 z"},"E":{"x_min":0,"x_max":407,"ha":407,"o":"m 63 0 l 63 810 l 377 810 l 377 726 l 176 726 l 176 458 l 339 458 l 339 378 l 176 378 l 176 81 l 379 81 l 379 0 z"},"s":{"x_min":0,"x_max":374,"ha":374,"o":"m 188 -8 q 118 -8 74 36 q 31 80 25 154 l 114 181 q 121 125 139 98 q 158 71 192 71 q 221 71 239 90 q 257 108 256 137 q 253 180 209 218 l 110 303 q 75 333 57 365 q 38 397 39 444 q 41 512 81 549 q 120 586 188 586 q 254 586 292 543 q 330 500 335 434 l 263 407 q 257 456 241 482 q 225 507 192 507 q 167 507 150 490 q 134 473 135 448 q 135 415 164 390 l 266 296 q 305 262 326 226 q 348 190 348 140 q 348 67 305 30 q 262 -8 188 -8 z"},">":{"x_min":0,"x_max":373,"ha":373,"o":"m 58 36 l 58 143 l 264 293 l 58 441 l 58 549 l 345 346 l 345 239 z"},"l":{"x_min":0,"x_max":229,"ha":229,"o":"m 64 0 l 64 810 l 171 810 l 171 0 z"},"8":{"x_min":0,"x_max":478,"ha":478,"o":"m 240 476 q 264 476 281 488 q 298 500 307 520 q 315 541 319 564 q 323 586 323 614 q 323 668 303 701 q 283 734 240 734 q 195 734 175 701 q 155 668 155 614 q 155 586 159 564 q 163 541 172 520 q 181 500 198 488 q 215 476 240 476 z m 336 226 q 336 268 328 299 q 320 330 297 352 q 275 374 240 374 q 212 374 193 361 q 173 349 163 328 q 152 307 147 281 q 142 256 142 226 q 142 192 146 167 q 151 141 161 120 q 172 98 192 87 q 211 76 240 76 q 268 76 288 87 q 307 99 317 120 q 328 142 332 167 q 336 192 336 226 z m 240 -9 q 134 -9 87 52 q 40 113 40 228 q 40 305 65 351 q 91 397 140 427 q 50 487 50 608 q 50 708 97 762 q 144 817 240 817 q 334 817 381 762 q 428 708 428 608 q 428 486 338 427 q 387 396 413 350 q 439 304 439 228 q 439 113 392 52 q 345 -9 240 -9 z"},"\\":{"x_min":0,"x_max":369,"ha":369,"o":"m 247 0 l 29 810 l 121 810 l 340 0 z"},"e":{"x_min":0,"x_max":421,"ha":421,"o":"m 150 345 l 273 345 l 273 397 q 273 420 272 436 q 271 452 267 466 q 263 481 257 489 q 250 498 240 502 q 229 507 213 507 q 175 507 163 480 q 150 453 150 376 z m 214 -8 q 164 -8 130 6 q 96 21 77 51 q 59 82 51 122 q 43 163 43 223 l 43 355 q 43 415 52 456 q 60 498 79 528 q 98 558 131 572 q 165 586 214 586 q 245 586 269 580 q 292 574 310 564 q 327 554 339 536 q 352 519 359 500 q 367 480 371 453 q 375 425 377 398 q 378 371 378 334 l 378 287 l 150 287 l 150 210 q 150 208 150 204 q 150 179 151 167 q 151 156 153 137 q 154 118 158 109 q 162 100 169 89 q 176 79 187 75 q 198 71 213 71 q 248 71 260 94 q 273 118 273 166 l 273 201 l 377 201 l 377 179 q 377 -8 214 -8 z"},"b":{"x_min":0,"x_max":447,"ha":447,"o":"m 239 76 q 252 76 262 81 q 272 86 279 97 q 285 108 289 120 q 292 132 294 152 q 296 171 296 188 q 297 204 297 229 l 297 369 q 297 393 296 411 q 294 428 291 447 q 287 465 281 476 q 274 488 262 495 q 251 502 235 502 q 200 502 163 473 l 163 102 q 198 76 239 76 z m 261 -8 q 209 -8 163 42 l 163 0 l 56 0 l 56 810 l 163 810 l 163 532 q 210 586 272 586 q 297 586 318 577 q 338 569 351 555 q 364 542 375 522 q 385 502 390 483 q 396 464 399 442 q 402 419 403 403 q 404 386 404 369 l 404 229 q 404 -8 261 -8 z"},"%":{"x_min":0,"x_max":891,"ha":891,"o":"m 289 0 l 512 811 l 604 811 l 382 0 z m 698 -5 q 542 -5 542 183 l 542 246 q 542 337 578 384 q 615 431 698 431 q 781 431 818 386 q 855 341 855 250 l 855 180 q 855 89 817 42 q 780 -5 698 -5 z m 698 76 q 717 76 729 84 q 741 92 747 108 q 753 124 756 140 q 758 157 758 179 l 758 251 q 758 274 756 290 q 753 306 748 320 q 742 335 729 342 q 717 350 698 350 q 679 350 667 342 q 655 334 649 320 q 643 305 641 289 q 639 273 639 250 l 639 179 q 639 156 642 139 q 644 123 650 107 q 656 92 668 84 q 680 76 698 76 z m 193 380 q 36 380 36 568 l 36 631 q 36 723 73 770 q 110 816 193 816 q 276 816 313 771 q 350 726 350 636 l 350 565 q 350 380 193 380 z m 193 461 q 211 461 224 469 q 236 478 242 493 q 249 509 251 526 q 253 542 253 565 l 253 636 q 253 654 252 668 q 250 681 247 694 q 243 708 237 716 q 230 725 219 730 q 208 735 193 735 q 174 735 162 727 q 149 720 144 705 q 138 690 136 674 q 134 658 134 635 l 134 564 q 134 542 136 525 q 139 508 145 493 q 150 478 163 469 q 175 461 193 461 z"},"m":{"x_min":0,"x_max":680,"ha":680,"o":"m 54 0 l 54 578 l 153 578 l 153 523 q 211 588 289 588 q 362 588 383 515 q 443 588 527 588 q 572 588 601 555 q 629 522 629 454 l 629 0 l 531 0 l 531 447 q 531 487 518 503 q 505 519 481 518 q 436 518 391 471 q 391 465 391 454 l 391 0 l 293 0 l 293 447 q 293 487 280 503 q 267 519 243 518 q 199 518 153 471 l 153 0 z"},"#":{"x_min":0,"x_max":486,"ha":486,"o":"m 193 370 l 283 370 l 297 467 l 208 467 z m 34 0 l 75 290 l 32 290 l 32 370 l 87 370 l 101 467 l 34 467 l 34 548 l 112 548 l 150 810 l 257 810 l 219 548 l 309 548 l 347 810 l 453 810 l 415 548 l 456 548 l 456 467 l 404 467 l 389 370 l 453 370 l 453 290 l 378 290 l 336 0 l 229 0 l 271 290 l 182 290 l 141 0 z"},",":{"x_min":0,"x_max":187,"ha":187,"o":"m 57 -131 l 40 -85 q 67 -76 82 -53 q 98 -31 98 0 l 41 0 l 41 115 l 151 115 l 151 2 q 151 -50 128 -82 q 105 -114 57 -131 z"},"n":{"x_min":0,"x_max":439,"ha":439,"o":"m 54 0 l 54 578 l 161 578 l 161 521 q 229 586 302 586 q 327 586 344 576 q 362 565 372 548 q 381 530 385 510 q 389 491 389 468 l 389 0 l 282 0 l 282 437 q 282 470 272 486 q 262 502 236 502 q 204 502 161 466 l 161 0 z"},"h":{"x_min":0,"x_max":445,"ha":445,"o":"m 57 0 l 57 810 l 164 810 l 164 518 q 235 586 309 586 q 333 586 351 576 q 368 565 377 548 q 387 530 391 510 q 395 491 395 468 l 395 0 l 288 0 l 288 437 q 288 470 278 486 q 269 502 242 502 q 209 502 164 464 l 164 0 z"},"z":{"x_min":0,"x_max":347,"ha":347,"o":"m 32 0 l 32 72 l 209 498 l 50 498 l 50 578 l 324 578 l 324 520 l 146 81 l 320 81 l 320 0 z"},"B":{"x_min":0,"x_max":524,"ha":524,"o":"m 176 472 l 243 472 q 312 472 340 503 q 367 534 367 607 q 367 631 363 649 q 360 667 354 679 q 349 692 338 700 q 327 709 316 714 q 305 719 285 722 q 266 725 248 725 q 230 726 203 726 l 176 726 z m 176 81 l 252 81 q 326 81 353 115 q 379 150 379 231 q 379 309 347 347 q 315 386 243 386 l 176 386 z m 63 0 l 63 810 l 249 810 q 359 810 412 760 q 465 711 465 607 q 465 452 349 436 q 421 418 454 368 q 487 318 487 231 q 487 122 436 61 q 384 0 279 0 z"},"K":{"x_min":0,"x_max":495,"ha":495,"o":"m 63 0 l 63 810 l 176 810 l 176 428 l 362 810 l 467 810 l 307 453 l 493 0 l 383 0 l 220 401 l 176 319 l 176 0 z"},"R":{"x_min":0,"x_max":519,"ha":519,"o":"m 176 461 l 219 461 q 292 461 324 490 q 355 519 355 595 q 355 669 328 699 q 301 729 226 729 l 176 729 z m 63 0 l 63 810 l 226 810 q 349 810 406 759 q 464 709 464 595 q 464 439 364 406 l 479 0 l 370 0 l 264 380 l 176 380 l 176 0 z"},"T":{"x_min":0,"x_max":400,"ha":400,"o":"m 146 0 l 146 726 l -1 726 l -1 810 l 402 810 l 402 726 l 259 726 l 259 0 z"},"P":{"x_min":0,"x_max":480,"ha":480,"o":"m 176 458 l 228 458 q 302 458 330 484 q 357 511 357 585 q 357 616 356 636 q 354 656 349 673 q 344 691 336 700 q 328 710 313 717 q 298 724 278 726 q 258 729 229 729 l 176 729 z m 63 0 l 63 810 l 264 810 q 370 810 417 753 q 464 696 464 586 q 464 487 413 432 q 362 377 265 377 l 176 377 l 176 0 z"},"|":{"x_min":0,"x_max":239,"ha":239,"o":"m 69 -148 l 70 810 l 169 810 l 169 -148 z"},"t":{"x_min":0,"x_max":308,"ha":308,"o":"m 208 -8 q 142 -8 113 26 q 84 61 83 130 l 83 507 l 22 507 l 22 578 l 83 578 l 83 747 l 190 747 l 190 578 l 283 578 l 283 507 l 190 507 l 190 137 q 190 103 201 88 q 212 74 243 74 q 266 74 282 77 l 282 -2 q 235 -8 208 -8 z"},"M":{"x_min":0,"x_max":660,"ha":660,"o":"m 61 0 l 76 810 l 187 810 l 330 153 l 474 810 l 584 810 l 599 0 l 508 0 l 499 588 l 362 0 l 298 0 l 162 588 l 153 0 z"},"g":{"x_min":0,"x_max":435,"ha":435,"o":"m 207 252 q 249 252 262 282 q 276 312 276 380 q 276 407 275 425 q 273 443 269 461 q 265 479 258 489 q 250 499 238 505 q 226 512 208 512 q 166 512 152 480 q 137 449 137 380 q 137 356 139 339 q 140 321 145 304 q 149 287 156 276 q 164 266 177 259 q 189 252 207 252 z m 232 -95 q 279 -95 301 -81 q 323 -67 323 -38 q 323 -10 306 3 q 290 17 244 21 l 153 29 q 139 17 125 -3 q 110 -23 110 -46 q 110 -64 119 -74 q 127 -83 154 -89 q 181 -95 232 -95 z m 234 -179 q 203 -179 179 -178 q 156 -177 129 -174 q 103 -171 85 -165 q 66 -159 51 -149 q 35 -139 27 -124 q 20 -109 20 -89 q 20 -44 43 -12 q 67 21 103 41 q 76 49 61 66 q 47 83 47 103 q 47 133 62 155 q 77 178 111 208 q 77 234 61 274 q 44 313 44 380 q 44 481 85 534 q 126 586 207 586 q 295 586 326 522 q 333 533 355 552 q 378 570 404 582 l 420 589 l 447 520 q 427 516 392 503 q 356 490 349 483 q 356 466 361 434 q 367 402 367 377 q 367 331 359 296 q 351 260 333 233 q 314 206 283 191 q 251 177 207 177 q 198 177 177 180 q 155 183 152 184 q 151 183 147 177 q 144 170 142 167 q 141 165 138 159 q 135 153 134 149 q 133 144 133 140 q 133 128 144 123 q 156 117 181 114 q 184 114 227 110 q 270 106 271 106 q 405 93 405 -35 q 405 -112 364 -146 q 322 -179 234 -179 z"},"j":{"x_min":0,"x_max":230,"ha":230,"o":"m 69 664 l 69 776 l 177 776 l 177 664 z m -19 -139 l -19 -62 q -6 -65 9 -65 q 69 -65 69 5 l 69 578 l 176 578 l 176 -6 q 176 -73 139 -110 q 102 -146 36 -146 q -1 -146 -19 -139 z"},"i":{"x_min":0,"x_max":229,"ha":229,"o":"m 61 664 l 61 776 l 168 776 l 168 664 z m 61 0 l 61 578 l 168 578 l 168 0 z"},"y":{"x_min":0,"x_max":392,"ha":392,"o":"m 45 -145 l 45 -63 q 116 -63 136 -50 q 156 -36 146 6 q 132 67 128 86 q 111 159 70 332 q 29 505 12 578 l 120 578 l 198 146 l 273 578 l 381 578 l 243 -32 q 229 -93 184 -119 q 140 -145 58 -145 z"},"@":{"x_min":0,"x_max":904,"ha":904,"o":"m 448 182 q 474 186 495 212 q 516 239 525 287 l 560 520 q 546 525 532 525 q 492 525 457 492 q 421 459 399 402 q 377 344 377 278 q 377 231 396 203 q 414 175 448 182 z m 470 -134 q 399 -134 337 -118 q 276 -102 224 -69 q 173 -36 136 13 q 100 61 79 130 q 59 198 59 282 q 59 388 80 475 q 102 562 142 623 q 182 685 238 727 q 294 769 363 789 q 431 810 511 810 q 582 810 641 788 q 700 767 740 730 q 781 694 809 644 q 836 594 849 538 q 861 482 861 421 q 860 333 831 259 q 802 186 747 142 q 692 98 621 98 q 579 98 551 123 q 523 148 522 190 q 513 154 490 129 q 467 103 427 100 q 379 95 344 120 q 310 145 293 187 q 277 228 277 279 q 277 335 295 393 q 312 451 343 498 q 373 545 418 575 q 463 604 514 604 q 530 604 548 597 q 566 589 579 579 l 589 596 l 667 596 l 610 229 q 607 210 607 201 q 606 191 608 180 q 609 168 615 163 q 622 158 633 158 q 674 158 709 192 q 743 226 763 284 q 782 342 783 411 q 783 462 774 508 q 764 554 742 594 q 720 635 688 664 q 656 693 609 709 q 562 726 504 726 q 347 726 251 606 q 156 487 156 286 q 156 202 180 137 q 204 72 247 31 q 290 -10 349 -31 q 407 -51 479 -51 q 565 -51 661 -24 l 680 -102 q 568 -134 470 -134 z"},".":{"x_min":0,"x_max":188,"ha":188,"o":"m 49 0 l 49 119 l 156 119 l 156 0 z"},"p":{"x_min":0,"x_max":446,"ha":446,"o":"m 238 76 q 251 76 261 81 q 271 86 277 97 q 284 108 288 120 q 292 132 293 152 q 295 171 295 188 q 296 204 296 229 l 296 369 q 296 393 295 411 q 293 428 290 447 q 286 465 280 476 q 273 488 261 495 q 250 502 234 502 q 197 502 161 472 l 161 102 q 196 76 238 76 z m 54 -190 l 54 578 l 161 578 l 161 532 q 207 586 271 586 q 300 586 323 575 q 345 564 359 545 q 373 525 382 504 q 392 482 396 455 q 400 429 401 409 q 403 390 403 369 l 403 229 q 403 -8 259 -8 q 208 -8 161 43 l 161 -190 z"},"X":{"x_min":0,"x_max":482,"ha":482,"o":"m 13 0 l 182 424 l 16 810 l 121 810 l 244 524 l 356 810 l 461 810 l 291 415 l 469 0 l 364 0 l 232 305 l 118 0 z"},"*":{"x_min":0,"x_max":398,"ha":398,"o":"m 147 469 l 84 507 l 163 618 l 45 663 l 71 731 l 184 671 l 172 809 l 253 809 l 240 671 l 354 731 l 379 663 l 261 617 l 341 507 l 276 469 l 212 594 z"},"Y":{"x_min":0,"x_max":481,"ha":481,"o":"m 187 0 l 187 286 l 12 810 l 117 810 l 241 419 l 363 810 l 469 810 l 295 286 l 295 0 z"},"c":{"x_min":0,"x_max":411,"ha":411,"o":"m 212 -8 q 170 -8 140 3 q 110 14 91 32 q 73 51 62 81 q 51 111 47 144 q 43 177 43 222 l 43 355 q 43 414 50 453 q 57 493 75 524 q 93 556 127 571 q 161 586 212 586 q 258 586 290 575 q 321 563 338 540 q 355 516 363 483 q 370 451 370 404 l 370 370 l 273 370 l 273 405 q 273 462 260 485 q 248 507 213 507 q 174 507 162 480 q 150 453 150 377 l 150 195 q 150 122 164 96 q 177 71 214 71 q 229 71 240 76 q 251 81 258 89 q 264 97 268 111 q 271 125 272 138 q 273 151 273 171 l 273 218 l 370 218 l 370 178 q 370 132 362 99 q 355 66 337 41 q 320 16 289 4 q 258 -8 212 -8 z"},"!":{"x_min":0,"x_max":208,"ha":208,"o":"m 84 173 l 50 810 l 158 810 l 122 173 z m 50 0 l 50 110 l 158 110 l 158 0 z"},"/":{"x_min":0,"x_max":369,"ha":369,"o":"m 29 0 l 247 810 l 340 810 l 121 0 z"},"[":{"x_min":0,"x_max":340,"ha":340,"o":"m 63 -184 l 63 810 l 283 810 l 283 755 l 170 755 l 170 -129 l 283 -129 l 283 -184 z"},"6":{"x_min":0,"x_max":489,"ha":489,"o":"m 253 80 q 279 80 297 91 q 316 103 326 124 q 336 146 341 171 q 346 197 346 229 q 346 255 345 270 q 345 285 343 306 q 341 328 338 341 q 334 353 328 368 q 321 382 311 390 q 301 397 287 403 q 272 408 253 408 q 222 408 198 392 q 174 376 161 353 l 161 232 q 161 80 253 80 z m 253 -9 q 202 -9 163 12 q 124 32 101 69 q 77 105 65 153 q 54 200 54 257 l 54 530 q 54 592 64 641 q 74 691 96 732 q 118 772 158 795 q 198 817 253 817 q 347 817 398 766 q 449 715 451 620 q 451 619 451 615 q 452 610 452 608 l 344 608 q 344 670 324 700 q 304 729 253 729 q 161 729 161 556 l 161 433 q 177 459 208 474 q 238 489 279 489 q 319 489 349 478 q 379 467 399 448 q 418 428 431 398 q 443 368 448 333 q 454 299 454 255 q 454 210 447 171 q 440 132 425 99 q 409 65 386 42 q 363 18 329 5 q 295 -9 253 -9 z"},"r":{"x_min":0,"x_max":321,"ha":321,"o":"m 57 0 l 57 578 l 164 578 l 164 496 q 193 545 225 565 q 256 585 292 585 q 301 585 309 584 l 309 466 q 279 478 250 478 q 224 478 203 466 q 183 454 164 422 l 164 0 z"},"2":{"x_min":0,"x_max":478,"ha":478,"o":"m 41 0 l 41 76 l 247 397 q 253 407 268 431 q 284 455 290 465 q 296 475 307 495 q 317 516 322 530 q 326 545 330 566 q 334 587 334 609 q 334 729 253 729 q 157 729 157 580 l 157 553 l 50 553 l 50 581 q 50 695 97 756 q 144 817 248 817 q 344 817 393 763 q 442 708 442 608 q 442 572 436 542 q 431 513 417 483 q 402 453 392 436 q 382 418 359 384 q 355 377 353 374 l 167 90 l 423 90 l 423 0 z"},"{":{"x_min":0,"x_max":300,"ha":300,"o":"m 277 -191 q 244 -191 221 -190 q 198 -189 178 -185 q 158 -180 146 -175 q 134 -169 125 -157 q 115 -145 110 -132 q 105 -120 102 -96 q 99 -73 98 -50 q 98 -27 98 10 l 98 151 q 98 208 93 233 q 88 258 77 267 q 65 276 40 276 l 40 350 q 65 350 77 359 q 88 369 93 394 q 98 419 98 476 l 98 616 q 98 653 98 676 q 99 699 102 722 q 105 746 110 758 q 115 771 125 783 q 134 795 146 801 q 158 806 178 811 q 198 815 221 816 q 244 817 277 817 l 277 738 q 267 738 259 738 q 252 738 245 736 q 238 734 233 733 q 229 732 225 727 q 221 721 219 719 q 217 716 215 706 q 213 697 212 691 q 211 686 211 671 q 210 656 210 646 q 210 637 210 616 l 210 460 q 210 389 193 355 q 176 321 144 313 q 176 306 193 272 q 210 238 210 167 l 210 10 q 210 -11 210 -20 q 210 -30 211 -45 q 211 -60 212 -65 q 213 -71 215 -81 q 217 -90 219 -93 q 221 -96 225 -101 q 229 -106 233 -107 q 238 -108 245 -110 q 252 -112 259 -112 q 267 -112 277 -112 z"},"9":{"x_min":0,"x_max":489,"ha":489,"o":"m 245 401 q 304 401 336 457 l 336 577 q 336 729 245 729 q 219 729 200 718 q 182 706 171 684 q 161 663 156 637 q 152 611 152 580 q 152 554 152 539 q 152 524 154 502 q 156 481 160 469 q 163 456 170 442 q 177 427 187 419 q 196 412 211 406 q 226 401 245 401 z m 245 -9 q 150 -9 99 43 q 48 95 46 192 q 46 194 46 201 l 153 201 q 153 139 173 109 q 193 80 246 80 q 336 80 336 253 l 336 376 q 302 320 218 320 q 169 320 135 337 q 100 353 81 385 q 61 417 52 458 q 44 499 44 554 q 44 611 55 657 q 66 704 90 740 q 113 777 153 797 q 192 817 245 817 q 296 817 335 797 q 374 776 397 740 q 420 704 432 656 q 444 609 444 552 l 444 280 q 444 230 438 189 q 432 148 418 111 q 403 73 381 47 q 359 21 324 6 q 290 -9 245 -9 z"}," ":{"x_min":0,"x_max":229,"ha":229,"o":""},"I":{"x_min":0,"x_max":248,"ha":248,"o":"m 69 0 l 69 810 l 180 810 l 180 0 z"},"H":{"x_min":0,"x_max":561,"ha":561,"o":"m 63 0 l 63 810 l 176 810 l 176 460 l 384 460 l 384 810 l 497 810 l 497 0 l 384 0 l 384 379 l 176 379 l 176 0 z"},"4":{"x_min":0,"x_max":491,"ha":491,"o":"m 148 314 l 273 314 l 273 674 z m 273 0 l 273 213 l 40 213 l 40 332 l 248 810 l 381 810 l 381 314 l 471 314 l 471 213 l 381 213 l 381 0 z"},"~":{"x_min":0,"x_max":447,"ha":447,"o":"m 296 363 q 275 363 247 377 q 218 392 191 406 q 164 420 146 420 q 120 420 73 382 l 35 433 q 61 459 95 483 q 130 506 154 506 q 179 506 230 478 q 281 449 302 449 q 312 449 324 456 q 337 462 347 469 q 356 476 374 489 l 412 440 q 387 411 354 387 q 321 363 296 363 z"},"D":{"x_min":0,"x_max":527,"ha":527,"o":"m 63 0 l 63 810 l 239 810 q 371 810 425 750 q 479 690 479 562 l 479 265 q 479 131 425 66 q 372 0 248 0 z m 176 81 l 240 81 q 266 81 285 86 q 305 91 318 98 q 332 105 341 121 q 350 137 354 150 q 359 163 361 189 q 364 215 364 233 q 365 251 365 286 l 365 549 q 365 579 364 599 q 363 619 360 639 q 357 659 351 671 q 345 684 336 696 q 327 707 313 713 q 299 719 281 723 q 262 726 237 726 l 176 726 z"},"^":{"x_min":0,"x_max":443,"ha":443,"o":"m 34 487 l 168 810 l 276 810 l 410 487 l 308 487 l 222 730 l 135 487 z"},"0":{"x_min":0,"x_max":491,"ha":491,"o":"m 246 -9 q 146 -9 96 56 q 45 122 45 230 l 45 579 q 45 690 95 754 q 144 817 246 817 q 347 817 396 754 q 446 690 446 579 l 446 230 q 446 121 396 56 q 346 -9 246 -9 z m 338 229 l 338 580 q 338 612 335 637 q 331 662 321 684 q 312 706 292 718 q 273 730 246 730 q 218 730 199 718 q 180 706 170 684 q 160 662 156 637 q 153 612 153 580 l 153 229 q 153 79 246 79 q 338 79 338 229 z"},"F":{"x_min":0,"x_max":391,"ha":391,"o":"m 63 0 l 63 810 l 376 810 l 376 729 l 176 729 l 176 459 l 331 459 l 331 379 l 176 379 l 176 0 z"},"`":{"x_min":0,"x_max":278,"ha":278,"o":"m 167 612 l 57 810 l 164 810 l 221 612 z"},"k":{"x_min":0,"x_max":429,"ha":429,"o":"m 56 1 l 56 811 l 163 811 l 163 328 l 319 578 l 431 578 l 295 352 l 427 0 l 320 0 l 212 296 l 163 222 l 163 1 z"},"u":{"x_min":0,"x_max":440,"ha":440,"o":"m 137 -8 q 112 -8 94 2 q 77 13 67 31 q 58 48 54 68 q 50 87 50 110 l 50 578 l 157 578 l 157 142 q 157 108 167 92 q 177 76 203 76 q 235 76 278 112 l 278 578 l 385 578 l 385 0 l 278 0 l 278 57 q 209 -8 137 -8 z"},"]":{"x_min":0,"x_max":310,"ha":310,"o":"m 26 -184 l 26 -129 l 139 -129 l 139 754 l 26 754 l 26 810 l 247 810 l 247 -184 z"},"U":{"x_min":0,"x_max":543,"ha":543,"o":"m 56 273 l 56 810 l 164 810 l 164 268 q 164 233 166 208 q 167 182 174 156 q 181 131 193 115 q 204 100 224 90 q 244 80 272 80 q 300 80 320 90 q 339 100 351 115 q 362 131 369 157 q 376 182 378 208 q 380 233 380 268 l 380 810 l 487 810 l 487 273 q 487 219 482 178 q 477 137 462 101 q 448 64 424 41 q 400 18 362 5 q 324 -9 272 -9 q 220 -9 182 5 q 144 18 120 41 q 96 64 81 101 q 67 137 62 178 q 56 219 56 273 z"},"o":{"x_min":0,"x_max":424,"ha":424,"o":"m 212 -8 q 165 -8 132 6 q 99 21 80 50 q 61 79 52 116 q 43 154 43 205 l 43 373 q 43 423 52 461 q 61 499 80 528 q 99 557 132 571 q 165 586 212 586 q 303 586 342 531 q 380 477 380 373 l 380 205 q 380 101 342 46 q 303 -8 212 -8 z m 212 71 q 227 71 238 75 q 249 80 255 90 q 261 100 265 110 q 269 119 271 137 q 272 155 273 166 q 273 177 273 198 l 273 379 q 273 398 273 407 q 272 417 271 433 q 271 449 268 457 q 266 466 262 477 q 257 488 251 494 q 244 499 234 503 q 225 507 212 507 q 199 507 189 503 q 179 499 173 494 q 167 488 162 477 q 157 466 155 457 q 153 449 152 433 q 151 417 151 407 q 150 398 150 379 l 150 198 q 150 180 151 170 q 151 161 152 145 q 153 129 155 120 q 157 112 162 101 q 167 90 173 84 q 179 79 189 75 q 199 71 212 71 z"},"N":{"x_min":0,"x_max":528,"ha":528,"o":"m 63 0 l 63 810 l 140 810 l 370 272 l 370 810 l 464 810 l 464 0 l 392 0 l 159 553 l 159 0 z"},"+":{"x_min":0,"x_max":415,"ha":415,"o":"m 165 212 l 165 375 l 25 375 l 25 456 l 165 456 l 165 619 l 245 619 l 245 456 l 390 456 l 390 375 l 245 375 l 245 212 z"},"G":{"x_min":0,"x_max":535,"ha":535,"o":"m 256 -10 q 146 -10 97 60 q 48 129 48 266 l 48 537 q 48 592 54 634 q 61 676 75 712 q 90 748 115 770 q 139 792 177 805 q 214 817 265 817 q 377 817 427 760 q 476 703 476 581 l 476 551 l 370 551 l 370 576 q 370 610 368 633 q 366 655 360 675 q 354 695 343 706 q 331 717 312 723 q 294 729 267 729 q 246 729 229 725 q 213 720 202 713 q 191 705 183 692 q 176 678 171 665 q 167 652 165 632 q 162 612 162 595 q 161 579 161 554 l 161 254 q 161 161 184 120 q 206 80 270 80 q 333 80 356 124 q 380 167 380 265 l 380 321 l 277 321 l 277 401 l 482 401 l 482 0 l 411 0 l 400 93 q 363 -10 256 -10 z"},"q":{"x_min":0,"x_max":443,"ha":443,"o":"m 216 76 q 248 76 282 98 l 282 477 q 246 502 214 502 q 151 502 151 381 l 151 218 q 151 190 153 171 q 154 152 158 133 q 162 114 168 102 q 175 91 188 83 q 200 76 216 76 z m 282 -190 l 282 37 q 240 -8 189 -8 q 114 -9 79 46 q 44 101 44 227 l 44 339 q 44 394 50 434 q 56 475 71 511 q 85 547 115 567 q 144 586 186 586 q 237 586 282 541 l 282 578 l 389 578 l 389 -190 z"},"d":{"x_min":0,"x_max":442,"ha":442,"o":"m 215 76 q 247 76 281 98 l 281 477 q 246 502 213 502 q 150 502 150 381 l 150 218 q 150 190 152 171 q 153 152 157 133 q 161 114 167 102 q 174 91 187 83 q 199 76 215 76 z m 188 -8 q 113 -9 78 46 q 43 101 43 227 l 43 339 q 43 382 47 416 q 50 450 59 483 q 69 516 84 537 q 99 559 125 573 q 150 586 185 586 q 237 586 281 541 l 281 810 l 388 810 l 388 0 l 281 0 l 281 37 q 239 -8 188 -8 z"},"1":{"x_min":0,"x_max":467,"ha":467,"o":"m 222 0 l 222 670 q 222 669 214 667 q 206 666 193 663 q 181 660 166 657 q 151 654 136 651 q 122 648 110 646 q 98 644 89 642 l 81 641 l 81 722 q 205 753 248 810 l 329 810 l 329 0 z"},"5":{"x_min":0,"x_max":476,"ha":476,"o":"m 243 -8 q 138 -8 92 51 q 47 111 47 227 l 154 227 q 154 202 156 183 q 157 164 163 143 q 168 122 178 108 q 188 95 205 86 q 222 77 245 77 q 263 77 277 82 q 292 87 301 96 q 311 104 318 119 q 325 133 328 147 q 332 162 334 184 q 336 206 337 224 q 337 242 337 270 q 337 306 336 330 q 334 354 329 378 q 323 401 313 414 q 303 427 287 435 q 270 443 246 443 q 215 443 192 424 q 168 405 156 376 l 65 376 l 65 810 l 414 810 l 414 703 l 162 703 l 155 479 q 198 524 272 524 q 320 524 354 506 q 388 489 407 456 q 427 422 436 380 q 444 338 444 284 q 444 232 439 190 q 433 147 419 110 q 405 72 383 46 q 360 21 325 6 q 290 -8 243 -8 z"}}}
